<?xml version="1.0"?>
<svg xmlns="http://www.w3.org/2000/svg" id="outline" viewBox="0 0 512 512" width="512" height="512"><path d="M423.31055,20.751A8.00079,8.00079,0,0,0,416,16H96a8.00079,8.00079,0,0,0-7.31055,4.751l-32,72,.00354.00146A7.96242,7.96242,0,0,0,56,96v40a39.96343,39.96343,0,0,0,16.028,32H72V384H88V175.19507a39.99166,39.99166,0,0,0,40-15.2229,39.95835,39.95835,0,0,0,64,0,39.95835,39.95835,0,0,0,64,0,39.95835,39.95835,0,0,0,64,0,39.95835,39.95835,0,0,0,64,0,39.9361,39.9361,0,0,0,48,12.67773V384h16V160h-.022A39.79015,39.79015,0,0,0,456,136V96a7.96242,7.96242,0,0,0-.693-3.24756l.00354-.00146ZM435.68994,88H396.31006l19.69006-44.30249ZM186.801,88h-46.491L165.199,32h46.491ZM229.199,32h46.491L250.801,88h-46.491Zm64,0h46.491L314.801,88h-46.491Zm64,0h46.491L378.801,88h-46.491ZM101.19873,32h46.49121L122.801,88h-46.491ZM96,160a24.02718,24.02718,0,0,1-24-24V104h48v32A24.02718,24.02718,0,0,1,96,160Zm64,0a24.02718,24.02718,0,0,1-24-24V104h48v32A24.02718,24.02718,0,0,1,160,160Zm64,0a24.02718,24.02718,0,0,1-24-24V104h48v32A24.02718,24.02718,0,0,1,224,160Zm64,0a24.02718,24.02718,0,0,1-24-24V104h48v32A24.02718,24.02718,0,0,1,288,160Zm64,0a24.02718,24.02718,0,0,1-24-24V104h48v32A24.02718,24.02718,0,0,1,352,160Zm40-24V104h48v32a24,24,0,0,1-48,0Z"/><path d="M248,312a8.00008,8.00008,0,0,0,8-8V208a8.00008,8.00008,0,0,0-8-8H120a8.00008,8.00008,0,0,0-8,8v96a8.00008,8.00008,0,0,0,8,8ZM128,216H240v80H128Z"/><path d="M494.62451,403.51465A7.99929,7.99929,0,0,0,488,400H408V360a24.02718,24.02718,0,0,0-24-24H128a24.02718,24.02718,0,0,0-24,24v40H24a8.00028,8.00028,0,0,0-6.85986,12.11621L38.67041,448,17.14014,483.88379A8.00028,8.00028,0,0,0,24,496H144a24.0275,24.0275,0,0,0,24-24V432H344v40a24.0275,24.0275,0,0,0,24,24H488a7.99953,7.99953,0,0,0,7.42773-10.9707L480.61621,448l14.81152-37.0293A8.00009,8.00009,0,0,0,494.62451,403.51465ZM128,352H384a8.00917,8.00917,0,0,1,8,8v57.37622A23.88238,23.88238,0,0,0,384,416H128a23.88238,23.88238,0,0,0-8,1.37622V360A8.00917,8.00917,0,0,1,128,352Zm16,128H38.12939l16.73047-27.88379a8.00113,8.00113,0,0,0,0-8.23242L38.12939,416H104v24a24.0275,24.0275,0,0,0,24,24h16a8,8,0,0,1,0,16Zm8-30.62378A23.88238,23.88238,0,0,0,144,448H128a8,8,0,0,1,0-16h24ZM384,432a8,8,0,0,1,0,16H368a23.88238,23.88238,0,0,0-8,1.37622V432Zm80.57227,18.9707L476.18359,480H368a8,8,0,0,1,0-16h16a24.0275,24.0275,0,0,0,24-24V416h68.18359l-11.61132,29.0293A7.99512,7.99512,0,0,0,464.57227,450.9707Z"/><path d="M392,320V208a8.00008,8.00008,0,0,0-8-8H296a8.00008,8.00008,0,0,0-8,8V320h16V216h72V320Z"/></svg>
