<?xml version="1.0" encoding="iso-8859-1"?>
<!-- Generator: Adobe Illustrator 19.0.0, SVG Export Plug-In . SVG Version: 6.00 Build 0)  -->
<svg version="1.1" id="Capa_1" xmlns="http://www.w3.org/2000/svg" xmlns:xlink="http://www.w3.org/1999/xlink" x="0px" y="0px"
	 viewBox="0 0 480 480" style="enable-background:new 0 0 480 480;" xml:space="preserve">
<g>
	<g>
		<g>
			<path d="M440,0H40C17.92,0.026,0.026,17.92,0,40v352c0,4.418,3.582,8,8,8h16v72c0,4.418,3.582,8,8,8h32c4.418,0,8-3.582,8-8v-40
				h336v40c0,4.418,3.582,8,8,8h32c4.418,0,8-3.582,8-8v-72h16c4.418,0,8-3.582,8-8V40C479.974,17.92,462.08,0.026,440,0z M56,464
				H40v-32h16V464z M440,464h-16v-32h16V464z M440,416H40v-16h400V416z M464,384H16V272h448V384z M464,256H16V144h448V256z M464,128
				H16V40c0-13.255,10.745-24,24-24h400c13.255,0,24,10.745,24,24V128z"/>
			<path d="M240,336c13.255,0,24-10.745,24-24s-10.745-24-24-24s-24,10.745-24,24S226.745,336,240,336z M240,304
				c4.418,0,8,3.582,8,8s-3.582,8-8,8s-8-3.582-8-8S235.582,304,240,304z"/>
			<path d="M240,208c13.255,0,24-10.745,24-24s-10.745-24-24-24s-24,10.745-24,24S226.745,208,240,208z M240,176
				c4.418,0,8,3.582,8,8s-3.582,8-8,8s-8-3.582-8-8S235.582,176,240,176z"/>
			<path d="M240,32c-13.255,0-24,10.745-24,24s10.745,24,24,24s24-10.745,24-24S253.255,32,240,32z M240,64c-4.418,0-8-3.582-8-8
				s3.582-8,8-8s8,3.582,8,8S244.418,64,240,64z"/>
		</g>
	</g>
</g>
<g>
</g>
<g>
</g>
<g>
</g>
<g>
</g>
<g>
</g>
<g>
</g>
<g>
</g>
<g>
</g>
<g>
</g>
<g>
</g>
<g>
</g>
<g>
</g>
<g>
</g>
<g>
</g>
<g>
</g>
</svg>
