<svg id="Capa_1" enable-background="new 0 0 512 512" height="512" viewBox="0 0 512 512" width="512" xmlns="http://www.w3.org/2000/svg"><g><path d="m497 337h-58v47c0 8.284-6.716 15-15 15s-15-6.716-15-15v-47h-34v63c0 8.284-6.716 15-15 15s-15-6.716-15-15v-63h-34v47c0 8.284-6.716 15-15 15s-15-6.716-15-15v-47h-34v63c0 8.284-6.716 15-15 15s-15-6.716-15-15v-63h-42v-42h-47c-8.284 0-15-6.716-15-15s6.716-15 15-15h47v-34h-63c-8.284 0-15-6.716-15-15s6.716-15 15-15h63v-34h-47c-8.284 0-15-6.716-15-15s6.716-15 15-15h47v-34h-63c-8.284 0-15-6.716-15-15s6.716-15 15-15h63v-58c0-8.284-6.716-15-15-15h-145c-8.284 0-15 6.716-15 15v482c0 8.284 6.716 15 15 15h482c8.284 0 15-6.716 15-15v-145c0-8.284-6.716-15-15-15zm-404.641 101.35c-7.35 2.192-15.867-1.295-18.71-9.99-2.205-7.424 1.375-15.902 9.99-18.71 8.359-2.494 17.2 2.494 19.07 11.42 1.361 7.266-2.43 14.699-10.35 17.28z"/></g></svg>