<?xml version="1.0" encoding="iso-8859-1"?>
<!-- Generator: Adobe Illustrator 19.0.0, SVG Export Plug-In . SVG Version: 6.00 Build 0)  -->
<svg version="1.1" id="Capa_1" xmlns="http://www.w3.org/2000/svg" xmlns:xlink="http://www.w3.org/1999/xlink" x="0px" y="0px"
	 viewBox="0 0 512 512" style="enable-background:new 0 0 512 512;" xml:space="preserve">
<path style="fill:#D23C69;" d="M189.935,201.29c20.635,27.084-22.03,71.467-55.054,29.935
	c-39.398-49.548-82.237-47.484-87.398-5.161c-5.129,42.061,61.392,41.155,77.18,72.774c14.346,28.731-45.974,50.698-32.449,109.935
	c17.204,75.355,112.172,66.065,134.882,21.677c50.813-99.316,103.226-33.032,122.495-12.387
	c40.711,43.619,141.016-10.085,66.065-79.484c-37.161-34.409-30.71-69.268-1.959-89.29c46.69-32.516,4.368-86.194-28.664-69.677
	c-8.793,4.396-16,18.581-33.032,23.226c-14.855,4.051-31.878-4.745-34.065-18.409c-5.505-34.409,45.945-60.071,41.29-89.979
	c-6.882-44.215-71.57-51.785-76.387-6.366c-5.257,49.568-26.045,70.366-59.078,53.849c-24.774-12.387-45.004-6.18-52.406,14.968
	C164.129,177.548,181.677,190.452,189.935,201.29z"/>
<path style="fill:#B4285A;" d="M413.697,249.29c46.691-32.516,4.368-86.194-28.664-69.677c-8.793,4.396-16,18.581-33.032,23.226
	c-2.934,0.8-5.941,0.97-8.913,0.829c-5.863,10.823-12.988,21.972-28.592,32.375c-22.71,15.14-58.494,3.441-58.494-37.849
	s-42.667-45.419-52.989-18.581c-3.368,8.757-4.483,16.293-13.447,21.214c0.12,0.154,0.255,0.311,0.371,0.464
	c20.635,27.084-22.03,71.467-55.054,29.935c-7.533-9.474-15.188-17.029-22.685-22.808c-29.103,7.452-41.363,34.509-33.656,58.101
	c17.89,8.918,38.274,16.6,46.123,32.32c14.346,28.731-45.974,50.698-32.449,109.935c3.969,17.384,12.105,30.212,22.51,39.195
	c48.366,25.895,86.276-36.287,108.243-84.614c20.645-45.419,81.169-37.214,103.914-2.753c22.71,34.409,69.029,27.898,71.57-8.946
	c0.518-7.51,3.111-15.582,7.028-23.901C380.2,297.023,387.962,267.212,413.697,249.29z"/>
<g>
	<path style="fill:#D23C69;" d="M31.903,0.027C3.516,1.059-13.222,36.529,13.322,68.156c24.258,28.903,62.968,42.839,76.387,22.71
		C104.004,69.424,76.335-1.589,31.903,0.027z"/>
	<path style="fill:#D23C69;" d="M184.323,16.452c-21.249,5.233-25.479,30.13-4.695,45.941c19.742,15.019,31.674,5.152,32.636-9.127
		C212.819,45.027,205.393,11.263,184.323,16.452z"/>
	<path style="fill:#D23C69;" d="M441.025,62.614c-27.851,4.382-36.167,64.008-10.445,59.497
		C456.302,117.6,486.983,55.383,441.025,62.614z"/>
	<path style="fill:#D23C69;" d="M509.963,495.182c13.413-28.781-43.395-54.443-54.171-21.8
		C446.922,500.249,492.671,532.285,509.963,495.182z"/>
</g>
<g>
</g>
<g>
</g>
<g>
</g>
<g>
</g>
<g>
</g>
<g>
</g>
<g>
</g>
<g>
</g>
<g>
</g>
<g>
</g>
<g>
</g>
<g>
</g>
<g>
</g>
<g>
</g>
<g>
</g>
</svg>
